<svg id='Tax_24' width='24' height='24' viewBox='0 0 24 24' xmlns='http://www.w3.org/2000/svg' xmlns:xlink='http://www.w3.org/1999/xlink'><rect width='24' height='24' stroke='none' fill='#000000' opacity='0'/>


<g transform="matrix(0.71 0 0 0.71 12 12)" >
<path style="stroke: none; stroke-width: 1; stroke-dasharray: none; stroke-linecap: butt; stroke-dashoffset: 0; stroke-linejoin: miter; stroke-miterlimit: 4; fill: rgb(0,0,0); fill-rule: nonzero; opacity: 1;" transform=" translate(-16, -16)" d="M 12 3 C 10.300781 3 9 4.300781 9 6 C 9 7.699219 10.300781 9 12 9 L 12.699219 9 L 14.597656 11 L 10 16 L 10 19 L 19.300781 8.898438 C 19.5 9 19.699219 9 20 9 C 21.699219 9 23 7.699219 23 6 C 23 4.300781 21.699219 3 20 3 C 18.300781 3 17 4.300781 17 6 C 17 6.601563 17.199219 7.199219 17.5 7.699219 L 16 9.398438 L 14.402344 7.699219 C 14.800781 7.300781 15 6.699219 15 6 C 15 4.300781 13.699219 3 12 3 Z M 12 5 C 12.601563 5 13 5.398438 13 6 C 13 6.601563 12.601563 7 12 7 C 11.398438 7 11 6.601563 11 6 C 11 5.398438 11.398438 5 12 5 Z M 20 5 C 20.601563 5 21 5.398438 21 6 C 21 6.601563 20.601563 7 20 7 C 19.398438 7 19 6.601563 19 6 C 19 5.398438 19.398438 5 20 5 Z M 2 13 L 2 29 L 30 29 L 30 13 L 18.242188 13 L 15.480469 16 L 17 16 L 17 15 L 26.089844 15 C 26.03125 15.160156 26 15.328125 26 15.5 C 26 16.328125 26.671875 17 27.5 17 C 27.671875 17 27.839844 16.96875 28 16.910156 L 28 25.089844 C 27.839844 25.03125 27.671875 25 27.5 25 C 26.671875 25 26 25.671875 26 26.5 C 26 26.671875 26.03125 26.839844 26.089844 27 L 17 27 L 17 26 L 15 26 L 15 27 L 5.914063 27 C 5.96875 26.839844 6 26.671875 6 26.5 C 6 25.671875 5.328125 25 4.5 25 C 4.328125 25 4.160156 25.03125 4 25.089844 L 4 16.910156 C 4.160156 16.96875 4.328125 17 4.5 17 C 5.328125 17 6 16.328125 6 15.5 C 6 15.328125 5.96875 15.160156 5.914063 15 L 8.203125 15 L 8.527344 14.644531 L 10.042969 13 Z M 15 17.136719 C 14.683594 17.214844 14.390625 17.339844 14.109375 17.488281 L 12.328125 19.421875 C 12.125 19.90625 12 20.433594 12 21 C 12 22.894531 13.257813 24.429688 15 24.863281 L 15 24 L 17 24 L 17 24.863281 C 18.742188 24.429688 20 22.894531 20 21 C 20 19.105469 18.742188 17.570313 17 17.136719 L 17 18 L 15 18 Z M 8 19.5 C 7.171875 19.5 6.5 20.171875 6.5 21 C 6.5 21.828125 7.171875 22.5 8 22.5 C 8.828125 22.5 9.5 21.828125 9.5 21 C 9.5 20.171875 8.828125 19.5 8 19.5 Z M 24 19.5 C 23.171875 19.5 22.5 20.171875 22.5 21 C 22.5 21.828125 23.171875 22.5 24 22.5 C 24.828125 22.5 25.5 21.828125 25.5 21 C 25.5 20.171875 24.828125 19.5 24 19.5 Z M 15 20 L 17 20 L 17 22 L 15 22 Z" stroke-linecap="round" />
</g>
</svg>